<svg width="512" height="512" viewBox="0 0 512 512" fill="none" xmlns="http://www.w3.org/2000/svg">
<path d="M189 110H341V418H189V110Z" fill="#D9D9D9"/>
<path d="M221.46 14.7302C231.619 5.24868 243.132 0.507935 256 0.507935C268.868 0.507935 280.381 5.24868 290.54 14.7302L337.27 61.4603H402.286C415.831 62.1376 427.344 66.8783 436.825 75.6825C445.63 85.164 450.37 96.6772 451.048 110.222V175.238L497.778 221.968C507.259 231.45 512 242.963 512 256.508C512 269.376 507.259 280.889 497.778 291.048L451.048 336.762V402.794C450.37 416.339 445.63 427.852 436.825 437.333C427.344 446.138 415.831 450.878 402.286 451.556H336.254L290.54 497.27C280.381 506.751 268.868 511.492 256 511.492C243.132 511.492 231.619 506.751 221.46 497.27L175.746 451.556H109.714C96.1693 450.878 84.6561 446.138 75.1746 437.333C66.3704 427.852 61.6296 416.339 60.9524 402.794V336.762L14.2222 291.048C4.74074 280.889 0 269.376 0 256.508C0 242.963 4.74074 231.45 14.2222 221.968L60.9524 175.238V110.222C61.6296 96.6772 66.3704 85.164 75.1746 75.6825C84.6561 66.8783 96.1693 62.1376 109.714 61.4603H174.73L221.46 14.7302ZM256 126.476C241.101 127.831 232.974 135.958 231.619 150.857V264.635C232.974 279.534 241.101 287.661 256 289.016C270.899 287.661 279.026 279.534 280.381 264.635V150.857C279.026 135.958 270.899 127.831 256 126.476ZM288.508 354.032C288.508 344.55 285.46 336.762 279.365 330.667C273.27 324.571 265.481 321.524 256 321.524C246.519 321.524 238.73 324.571 232.635 330.667C226.54 336.762 223.492 344.55 223.492 354.032C223.492 363.513 226.54 371.302 232.635 377.397C238.73 383.492 246.519 386.54 256 386.54C265.481 386.54 273.27 383.492 279.365 377.397C285.46 371.302 288.508 363.513 288.508 354.032Z" fill="#B45309"/>
</svg>
